<svg xmlns="http://www.w3.org/2000/svg" width="190" height="70" fill="none" viewBox="0 0 190 70"><g clip-path="url(#clip0_106_369)"><rect width="10" height="10" y="10" fill="#76C81F"/><rect width="10" height="10" fill="#76C81F"/><rect width="10" height="10" y="20" fill="#76C81F"/><rect width="10" height="10" x="10" y="10" fill="#76C81F"/><rect width="10" height="10" x="10" fill="#76C81F"/><rect width="10" height="10" x="170" y="40" fill="#76C81F"/><rect width="10" height="10" x="70" y="10" fill="#76C81F"/><rect width="10" height="10" x="70" fill="#76C81F"/><rect width="10" height="10" x="170" y="10" fill="#76C81F"/><rect width="10" height="10" x="170" y="50" fill="#76C81F"/><rect width="10" height="10" x="70" y="20" fill="#76C81F"/><rect width="10" height="10" x="80" y="20" fill="#76C81F"/><rect width="10" height="10" x="110" y="20" fill="#76C81F"/><rect width="10" height="10" x="150" y="20" fill="#76C81F"/><rect width="10" height="10" x="90" y="20" fill="#76C81F"/><rect width="10" height="10" x="90" y="10" fill="#76C81F"/><rect width="10" height="10" x="120" y="20" fill="#76C81F"/><rect width="10" height="10" x="130" y="20" fill="#76C81F"/><rect width="10" height="10" x="170" fill="#76C81F"/><rect width="10" height="10" x="180" fill="#76C81F"/><rect width="10" height="10" x="180" y="40" fill="#76C81F"/><rect width="10" height="10" x="170" y="20" fill="#76C81F"/><rect width="10" height="10" x="180" y="20" fill="#76C81F"/><rect width="10" height="10" x="80" y="10" fill="#76C81F"/><rect width="10" height="10" x="80" fill="#76C81F"/><rect width="10" height="10" x="110" y="10" fill="#76C81F"/><rect width="10" height="10" x="110" fill="#76C81F"/><rect width="10" height="10" x="150" y="10" fill="#76C81F"/><rect width="10" height="10" x="150" fill="#76C81F"/><rect width="10" height="10" x="30" y="10" fill="#76C81F"/><rect width="10" height="10" x="30" fill="#76C81F"/><rect width="10" height="10" x="50" fill="#76C81F"/><rect width="10" height="10" x="30" y="20" fill="#76C81F"/><rect width="10" height="10" x="40" y="20" fill="#76C81F"/><rect width="10" height="10" x="50" y="20" fill="#76C81F"/><rect width="10" height="10" x="50" y="10" fill="#76C81F"/><rect width="10" height="10" y="40" fill="#76C81F"/><rect width="10" height="10" y="50" fill="#76C81F"/><rect width="10" height="10" x="20" y="50" fill="#76C81F"/><rect width="10" height="10" x="30" y="50" fill="#76C81F"/><rect width="10" height="10" x="30" y="40" fill="#76C81F"/><rect width="10" height="10" x="10" y="40" fill="#76C81F"/><rect width="10" height="10" x="120" y="40" fill="#76C81F"/><rect width="10" height="10" x="120" y="50" fill="#76C81F"/><rect width="10" height="10" x="190" y="70" fill="#76C81F" transform="rotate(-180 190 70)"/><rect width="10" height="10" x="140" y="50" fill="#76C81F"/><rect width="10" height="10" x="150" y="50" fill="#76C81F"/><rect width="10" height="10" x="150" y="40" fill="#76C81F"/><rect width="10" height="10" x="130" y="40" fill="#76C81F"/><rect width="10" height="10" x="50" y="40" fill="#76C81F"/><rect width="10" height="10" x="50" y="50" fill="#76C81F"/><rect width="10" height="10" x="60" y="40" fill="#76C81F"/><rect width="10" height="10" x="80" y="40" fill="#76C81F"/><rect width="10" height="10" x="80" y="50" fill="#76C81F"/><rect width="10" height="10" x="90" y="50" fill="#76C81F"/><rect width="10" height="10" x="100" y="50" fill="#76C81F"/><rect width="10" height="10" x="100" y="40" fill="#76C81F"/><rect width="10" height="10" x="60" y="50" fill="#76C81F"/></g><defs><clipPath id="clip0_106_369"><rect width="190" height="70" fill="#fff"/></clipPath></defs></svg>