<svg xmlns="http://www.w3.org/2000/svg" width="666.667" height="666.667" preserveAspectRatio="xMidYMid meet" version="1.0" viewBox="0 0 500 500"><metadata>Created by potrace 1.14, written by Peter Selinger 2001-2017</metadata><g fill="#000" stroke="none"><path d="M940 3125 l0 -315 -470 0 -470 0 0 -470 0 -470 155 0 155 0 0 315 0 315 315 0 315 0 0 -470 0 -470 935 0 935 0 0 470 0 470 155 0 155 0 0 -470 0 -470 940 0 940 0 0 940 0 940 -940 0 -940 0 0 -315 0 -315 -155 0 -155 0 0 315 0 315 -935 0 -935 0 0 -315z" transform="translate(0.000000,500.000000) scale(0.100000,-0.100000)"/></g></svg>