<svg xmlns="http://www.w3.org/2000/svg" xmlns:svg="http://www.w3.org/2000/svg" xmlns:xlink="http://www.w3.org/1999/xlink" id="trezor" width="191" height="210" x="0" style="enable-background:new 0 0 191 210" y="0" version="1.1" viewBox="0 0 191 210" xml:space="preserve"><style type="text/css">.st0{display:none;fill:#fff;stroke:#000}</style><rect id="rect25" width="11" height="35" x="320.9" y="718" class="st0"/><path id="path7" d="M95.6,19C72,19,52.9,38.1,52.9,61.7v16c-8.3,1.5-16.6,3.5-16.6,6.1v83.6	c0,0,0,2.3,2.6,3.4c9.4,3.8,46.4,16.9,54.9,19.9c1.1,0.4,1.4,0.4,1.7,0.4c0.4,0,0.6,0,1.7-0.4c8.5-3,45.6-16.1,55-19.9	c2.4-1,2.5-3.3,2.5-3.3V83.8c0-2.6-8.2-4.7-16.5-6.1v-16C138.2,38.1,119.1,19,95.6,19z M95.6,39.4c13.9,0,22.3,8.4,22.3,22.3v13.9	c-15.6-1.1-28.9-1.1-44.6,0V61.7C73.3,47.8,81.7,39.4,95.6,39.4z M95.5,96.1c19.4,0,35.7,1.5,35.7,4.2c0,0,0,51.3,0,52.1	c0,0.8-0.1,0.9-0.8,1.2c-0.7,0.3-33.1,12-33.1,12s-1.3,0.4-1.7,0.4c-0.4,0-1.7-0.5-1.7-0.5s-32.4-11.7-33.1-12	c-0.7-0.3-0.8-0.4-0.8-1.2c0-0.8,0-52.1,0-52.1C59.8,97.5,76.1,96.1,95.5,96.1z"/></svg>